<svg xmlns="http://www.w3.org/2000/svg" viewBox="0 0 785 785"><path d="M754.2 239.7c-19.8-46.7-48.1-88.7-84.1-124.8s-78-64.3-124.8-84.1C496.9 10.4 445.5 0 392.5 0S288.1 10.4 239.7 30.9C193 50.7 151 79 114.9 115s-64.3 78-84.1 124.8C10.4 288.1 0 339.5 0 392.5s10.4 104.4 30.8 152.8C50.6 592 78.9 634 114.9 670.1c36 36 78 64.3 124.8 84.1 48.4 20.5 99.8 30.8 152.8 30.8s104.4-10.4 152.8-30.8c46.7-19.8 88.7-48.1 124.8-84.1 36-36 64.3-78 84.1-124.8 20.5-48.4 30.8-99.8 30.8-152.8s-10.4-104.4-30.8-152.8M576.8 568.8H208.5v-68.7h2.6c29.2-.4 56.8-11.8 77.9-32.3 20.9-20.4 33-47.3 34-75.8v-2.6h66.8v-95.7H208.4v-77.6h366.9v68.7h-2.6c-28.9.7-56.2 12.3-77 32.8-20.6 20.3-32.5 47-33.5 75.3v2.6h-66.8v95.7h181.4z" style="fill:#ff4800"/></svg>